<svg version="1.1" id="Layer_1" xmlns="http://www.w3.org/2000/svg"
	xmlns:xlink="http://www.w3.org/1999/xlink" x="0px" y="0px"
	width="4096" height="3840"
	viewBox="0 0 1024 960" enable-background="new 0 0 1024 960"
	xml:space="preserve">
<path fill="#000000" opacity="1.000000" stroke="none" 
	d="
M294.727692,561.733643 
	C334.429901,559.360352 368.004669,527.595032 372.891144,488.600098 
	C373.800293,481.345032 373.092224,474.369232 372.113800,467.273560 
	C371.683502,464.152985 370.161957,459.668854 374.625549,458.814209 
	C379.268280,457.925262 379.367950,462.740875 379.819702,465.785553 
	C383.812927,492.699951 376.959778,516.714966 359.356232,537.355042 
	C341.502899,558.287964 318.122345,569.120972 290.979675,569.775757 
	C262.396881,570.465393 238.244278,559.341248 218.988434,537.778442 
	C203.990433,520.983582 197.014404,500.825012 197.267487,479.101685 
	C197.862000,428.069916 234.804993,389.752930 283.461945,386.767822 
	C315.938141,384.775452 341.999420,397.961548 362.427246,422.855743 
	C363.997894,424.769836 365.182892,427.011963 366.451782,429.158020 
	C367.299408,430.591614 367.228851,432.047211 365.925079,433.239624 
	C364.511658,434.532318 362.783051,434.714203 361.352142,433.608612 
	C359.935822,432.514282 358.773071,431.035461 357.678345,429.589569 
	C339.731262,405.885956 315.786469,393.821808 286.181183,394.407654 
	C246.110855,395.200531 211.410126,426.927429 206.126831,466.434479 
	C202.766342,491.563385 208.380585,514.418640 225.175262,533.417480 
	C243.308472,553.930542 266.709106,563.328369 294.727692,561.733643 
z"/>
<path fill="#000000" opacity="1.000000" stroke="none" 
	d="
M763.721802,458.005493 
	C763.725342,454.011414 763.798950,450.514465 763.711853,447.021545 
	C763.637329,444.033997 765.043030,442.831635 767.941345,442.844208 
	C782.421265,442.907074 796.901489,442.942078 811.381470,442.922729 
	C814.928833,442.917999 816.687439,444.361053 816.291748,448.049042 
	C816.185852,449.036255 816.160706,450.060638 816.296631,451.040466 
	C816.956238,455.795807 815.044189,457.575775 810.179688,457.380951 
	C802.203308,457.061523 794.201111,457.436584 786.217651,457.224152 
	C782.363098,457.121521 780.927002,458.446075 780.884460,462.369690 
	C780.791687,470.916504 780.619385,470.921112 789.290894,470.911407 
	C795.282654,470.904724 801.276672,470.970490 807.265259,470.823547 
	C810.811096,470.736511 812.631897,472.017548 812.297668,475.760406 
	C812.179749,477.081757 812.165466,478.431427 812.286194,479.751465 
	C812.653442,483.765869 810.607239,485.005859 806.912842,484.940308 
	C800.257507,484.822235 793.597961,484.877686 786.940979,484.941711 
	C781.110596,484.997772 780.368164,485.817200 780.434692,491.674652 
	C780.515076,498.751434 780.514954,498.787445 786.644226,498.809113 
	C795.132385,498.839081 803.625732,498.977722 812.107117,498.732117 
	C816.353088,498.609161 818.108887,499.990753 818.112854,504.391571 
	C818.120789,513.075500 818.083069,513.288727 809.344543,513.274017 
	C796.029602,513.251587 782.712830,513.102325 769.400879,513.292206 
	C764.988708,513.355103 763.626282,511.704407 763.669250,507.436707 
	C763.833618,491.127411 763.727417,474.815369 763.721802,458.005493 
z"/>
<path fill="#000000" opacity="1.000000" stroke="none" 
	d="
M675.901733,504.872467 
	C661.715820,518.901550 634.934021,516.706787 625.104248,500.969818 
	C621.737671,495.579956 620.527283,489.574005 620.521973,483.316376 
	C620.512085,471.662292 620.758789,460.005676 620.573181,448.355316 
	C620.505920,444.132111 622.086060,442.850067 626.110718,442.877319 
	C639.251404,442.966309 637.168640,442.373871 637.260803,453.687012 
	C637.342224,463.676575 637.124146,473.671509 637.365784,483.656128 
	C637.652832,495.514771 648.871460,502.137695 659.328369,496.812103 
	C664.951233,493.948456 666.601868,488.775696 666.702576,483.059479 
	C666.904968,471.573914 666.973877,460.080750 666.778320,448.596130 
	C666.704041,444.230011 668.234863,442.706390 672.566956,442.810760 
	C684.524841,443.098877 684.128845,441.209290 683.932251,453.966980 
	C683.765808,464.768860 683.676941,475.574738 683.289734,486.369354 
	C683.044617,493.201599 680.710388,499.383301 675.901733,504.872467 
z"/>
<path fill="#000000" opacity="1.000000" stroke="none" 
	d="
M541.958008,502.041443 
	C549.726624,483.760864 557.425232,465.862305 564.879578,447.862549 
	C566.368042,444.268250 568.297363,442.690063 572.286133,442.795837 
	C584.940125,443.131470 582.330322,441.230774 587.314270,452.829742 
	C594.938843,470.574249 602.546509,488.326141 610.128967,506.088715 
	C610.902100,507.899902 611.927673,509.669800 611.766052,512.469666 
	C606.752319,513.775024 601.492371,513.632904 596.392029,512.685699 
	C593.712952,512.188171 593.489319,508.876099 592.622253,506.589661 
	C589.816101,499.190155 589.844238,499.180908 581.977051,499.174316 
	C576.312622,499.169556 570.645020,499.271393 564.985046,499.108887 
	C561.904907,499.020416 560.189148,500.064667 558.986755,503.065735 
	C554.158142,515.116882 557.443054,513.063599 543.324951,513.241699 
	C541.737976,513.261749 539.958252,513.743317 538.378784,511.875366 
	C538.759644,508.617401 540.683289,505.630432 541.958008,502.041443 
M576.236938,484.821625 
	C578.690674,484.348297 583.143555,485.799927 582.086426,481.240784 
	C580.778137,475.598022 578.085022,470.276306 575.990112,464.815918 
	C575.448730,464.833588 574.907349,464.851227 574.366028,464.868896 
	C571.401855,471.062866 568.783569,477.394958 566.754944,484.104645 
	C570.082764,485.217438 572.746033,484.654694 576.236938,484.821625 
z"/>
<path fill="#000000" opacity="1.000000" stroke="none" 
	d="
M698.575317,472.045776 
	C693.582214,455.480469 702.155823,443.511200 720.017334,441.980347 
	C728.964783,441.213501 737.558350,443.181885 745.829041,446.647614 
	C749.376892,448.134277 750.517944,450.092865 748.891052,454.005524 
	C745.276123,462.699280 745.487610,462.700043 736.417297,459.383759 
	C730.948914,457.384399 725.437195,455.435944 719.411560,457.104034 
	C716.918152,457.794312 715.034302,459.082886 714.697998,461.646515 
	C714.330505,464.448181 715.901428,466.525360 718.432739,467.520111 
	C722.143188,468.978210 725.934082,470.258820 729.754272,471.402802 
	C733.748840,472.598999 737.776733,473.689148 741.475159,475.654266 
	C754.418274,482.531464 755.443298,500.724487 743.054443,508.643555 
	C730.705688,516.536987 717.473938,515.379700 704.701294,510.030670 
	C691.439270,504.476746 691.899902,504.523376 700.193787,491.420746 
	C700.356384,491.163818 705.422913,494.009430 708.216858,495.411530 
	C714.026794,498.327118 720.184570,499.418793 726.642944,498.897491 
	C729.975464,498.628479 733.151672,497.828186 733.718872,493.929016 
	C734.253113,490.256958 731.602600,488.467834 728.623901,487.472107 
	C723.260010,485.679108 717.766357,484.273254 712.407043,482.467957 
	C706.818787,480.585571 701.467834,478.229126 698.575317,472.045776 
z"/>
<path fill="#000000" opacity="1.000000" stroke="none" 
	d="
M456.819550,513.181030 
	C435.044952,517.212341 415.807190,503.891418 412.379822,482.819031 
	C409.781799,466.845581 421.417053,448.326752 437.003876,443.823395 
	C449.829987,440.117615 461.676605,442.105530 472.481567,450.027527 
	C477.181427,453.473297 477.364380,454.475677 474.069244,459.246582 
	C473.596191,459.931488 473.111511,460.608551 472.624481,461.283600 
	C468.751465,466.651825 468.816620,466.566711 463.676605,462.581299 
	C456.900208,457.327118 449.435638,455.265442 441.297150,459.067841 
	C432.904694,462.988892 429.572418,470.402893 429.764648,479.057373 
	C429.943237,487.097198 433.951965,493.546814 441.721313,496.570984 
	C449.737061,499.691071 457.389008,498.246918 464.403534,493.246948 
	C468.710052,490.177246 469.258698,490.611481 474.707794,497.329529 
	C477.372864,500.615173 476.118683,502.440491 473.474701,504.733673 
	C468.707153,508.868713 463.379395,511.732086 456.819550,513.181030 
z"/>
<path fill="#000000" opacity="1.000000" stroke="none" 
	d="
M235.258514,456.467407 
	C251.428162,420.000366 296.027374,409.462830 326.057465,434.725311 
	C327.828674,436.215302 329.471069,437.909882 330.928040,439.708069 
	C332.555634,441.716675 332.975616,443.948730 330.711243,445.896698 
	C328.402130,447.883179 326.579987,446.336395 325.115204,444.742859 
	C319.473083,438.604706 312.823822,434.196533 304.853973,431.555420 
	C276.378998,422.119110 245.638748,438.989502 239.785599,468.356903 
	C235.477631,489.971497 243.660187,510.431610 261.206757,520.870850 
	C280.658600,532.443604 304.405334,530.335571 320.631317,515.762573 
	C322.736298,513.872070 324.704895,511.828705 326.826416,509.957947 
	C328.377960,508.589844 330.102997,508.393951 331.785522,509.838593 
	C333.485565,511.298248 333.426178,512.981384 332.343353,514.751770 
	C330.132629,518.366333 327.023621,521.150879 323.732056,523.702026 
	C303.710724,539.219543 275.735046,540.360840 255.517578,526.543457 
	C235.220123,512.671387 226.306625,487.010376 233.299606,462.535645 
	C233.848099,460.616028 234.502747,458.726746 235.258514,456.467407 
z"/>
<path fill="#000000" opacity="1.000000" stroke="none" 
	d="
M487.968842,476.000000 
	C487.944763,466.517059 488.079163,457.529755 487.830750,448.553040 
	C487.713531,444.318390 488.977264,442.590942 493.481140,442.699585 
	C506.758636,443.019836 504.941254,441.987000 504.997772,454.285797 
	C505.055908,466.928131 505.181000,479.572510 505.004150,492.212189 
	C504.943542,496.541962 506.434998,498.145966 510.795746,497.964172 
	C517.271606,497.694214 523.776001,498.115448 530.252441,497.852966 
	C534.694580,497.672913 536.024536,499.552521 536.069641,503.734619 
	C536.173218,513.338928 536.319702,513.338898 526.617920,513.323181 
	C515.638672,513.305420 504.656708,513.137329 493.681458,513.336914 
	C489.261414,513.417297 487.848145,511.665680 487.920593,507.440430 
	C488.097382,497.129700 487.973328,486.813812 487.968842,476.000000 
z"/>
<path fill="#000000" opacity="1.000000" stroke="none" 
	d="
M391.744385,442.879028 
	C395.043915,447.395172 394.170258,450.236755 389.231720,450.571442 
	C377.942657,451.336456 366.617889,451.170654 355.311462,450.682373 
	C352.721069,450.570526 350.870758,449.236115 350.822754,446.331329 
	C350.776276,443.519135 352.585175,442.560699 355.016876,442.476166 
	C367.139496,442.054718 379.264832,441.472565 391.744385,442.879028 
z"/>
</svg>