<svg version="1.1" id="Layer_1" xmlns="http://www.w3.org/2000/svg"
	xmlns:xlink="http://www.w3.org/1999/xlink" x="0px" y="0px"
	viewBox="400 380 220 200" enable-background="new 400 380 220 200"
	xml:space="preserve">
<rect x="400" y="380" width="220" height="200" rx="20" ry="20" fill="#FFFFFF"/>
<g transform="translate(216, 3)">
<path fill="#2D353F" opacity="1.000000" stroke="none" 
	d="
M294.727692,561.733643 
	C334.429901,559.360352 368.004669,527.595032 372.891144,488.600098 
	C373.800293,481.345032 373.092224,474.369232 372.113800,467.273560 
	C371.683502,464.152985 370.161957,459.668854 374.625549,458.814209 
	C379.268280,457.925262 379.367950,462.740875 379.819702,465.785553 
	C383.812927,492.699951 376.959778,516.714966 359.356232,537.355042 
	C341.502899,558.287964 318.122345,569.120972 290.979675,569.775757 
	C262.396881,570.465393 238.244278,559.341248 218.988434,537.778442 
	C203.990433,520.983582 197.014404,500.825012 197.267487,479.101685 
	C197.862000,428.069916 234.804993,389.752930 283.461945,386.767822 
	C315.938141,384.775452 341.999420,397.961548 362.427246,422.855743 
	C363.997894,424.769836 365.182892,427.011963 366.451782,429.158020 
	C367.299408,430.591614 367.228851,432.047211 365.925079,433.239624 
	C364.511658,434.532318 362.783051,434.714203 361.352142,433.608612 
	C359.935822,432.514282 358.773071,431.035461 357.678345,429.589569 
	C339.731262,405.885956 315.786469,393.821808 286.181183,394.407654 
	C246.110855,395.200531 211.410126,426.927429 206.126831,466.434479 
	C202.766342,491.563385 208.380585,514.418640 225.175262,533.417480 
	C243.308472,553.930542 266.709106,563.328369 294.727692,561.733643 
z"/>
<path fill="#2D353F" opacity="1.000000" stroke="none" 
	d="
M235.258514,456.467407 
	C251.428162,420.000366 296.027374,409.462830 326.057465,434.725311 
	C327.828674,436.215302 329.471069,437.909882 330.928040,439.708069 
	C332.555634,441.716675 332.975616,443.948730 330.711243,445.896698 
	C328.402130,447.883179 326.579987,446.336395 325.115204,444.742859 
	C319.473083,438.604706 312.823822,434.196533 304.853973,431.555420 
	C276.378998,422.119110 245.638748,438.989502 239.785599,468.356903 
	C235.477631,489.971497 243.660187,510.431610 261.206757,520.870850 
	C280.658600,532.443604 304.405334,530.335571 320.631317,515.762573 
	C322.736298,513.872070 324.704895,511.828705 326.826416,509.957947 
	C328.377960,508.589844 330.102997,508.393951 331.785522,509.838593 
	C333.485565,511.298248 333.426178,512.981384 332.343353,514.751770 
	C330.132629,518.366333 327.023621,521.150879 323.732056,523.702026 
	C303.710724,539.219543 275.735046,540.360840 255.517578,526.543457 
	C235.220123,512.671387 226.306625,487.010376 233.299606,462.535645 
	C233.848099,460.616028 234.502747,458.726746 235.258514,456.467407 
z"/>
<path fill="#B4E8AE" opacity="1.000000" stroke="none" 
	d="
M391.744385,442.879028 
	C395.043915,447.395172 394.170258,450.236755 389.231720,450.571442 
	C377.942657,451.336456 366.617889,451.170654 355.311462,450.682373 
	C352.721069,450.570526 350.870758,449.236115 350.822754,446.331329 
	C350.776276,443.519135 352.585175,442.560699 355.016876,442.476166 
	C367.139496,442.054718 379.264832,441.472565 391.744385,442.879028 
z"/>
</g>
</svg>